<?xml version="1.0" standalone="no"?><!DOCTYPE svg PUBLIC "-//W3C//DTD SVG 1.1//EN" "http://www.w3.org/Graphics/SVG/1.1/DTD/svg11.dtd"><svg t="1557473622756" class="icon" style="" viewBox="0 0 1024 1024" version="1.1" xmlns="http://www.w3.org/2000/svg" p-id="668" xmlns:xlink="http://www.w3.org/1999/xlink" width="200" height="200"><defs><style type="text/css"></style></defs><path d="M509.9 128.2c123.1 0 246.2-0.1 369.3 0.1 13.9 0 27.9 0.1 41.7 1.9 66.3 8.7 99.1 44.9 99.3 111.8 0.5 166.4 0.6 332.9 0 499.3-0.2 72.5-48.3 122-120.6 122.2-260.1 0.8-520.2 0.8-780.3-0.1C47.2 863.2 1.5 817 1.1 745.2c-0.9-165.7-1-331.3 0-497 0.5-80.5 40.3-119.4 121-119.9 129.3-0.6 258.6-0.1 387.8-0.1z m-112.2 566c0-32.9 1.5-63.1-0.4-93.1-2.4-37.4-31.3-71.4-68.4-74.3-48.3-3.8-97.3-3.8-145.7-0.4-33.4 2.3-58.9 25.2-64.7 58-6.4 35.7-4.4 72.9-6.1 109.7l285.3 0.1z m-55-314.4c-0.1-47.7-37.5-84.6-86-84.9-49.1-0.2-87.3 37.6-87.3 86.3 0.1 48.4 38.9 86.8 87.3 86.3 48.7-0.5 86.1-38.7 86-87.7z m337.2 203.3c44.9 0 89.8 0.2 134.7-0.1 25.9-0.2 38.2-10 39.1-29.7 1-21.5-10.5-34.2-37-34.5-90.6-0.9-181.2-0.9-271.7 0.1-26.3 0.3-37.7 13.3-36.7 34.9 0.9 20 12.6 29 39.3 29.2 44.1 0.3 88.2 0.1 132.3 0.1z m0.5 116.6v0.2c44.8 0 89.7 0.3 134.5-0.1 25.8-0.2 38.6-10.7 38.9-29.9 0.3-19-12.9-32.7-36.9-32.9-91.2-0.7-182.4-0.5-273.7 0.3-8.4 0.1-20.3 3.8-24.4 9.9-5.8 8.5-11.2 24.3-7.1 30.9 6.2 9.9 20.5 20.1 31.8 20.7 45.6 2.3 91.3 0.9 136.9 0.9z m48.9-232c28.5 0 57.1 0.3 85.6-0.1 24.1-0.4 39.2-12.2 38.7-30.4-0.6-23.8-18.6-29.4-36.8-29.7-59.4-1-118.8-1-178.1 0-22.9 0.4-37.7 14.7-35.4 31.3 3 21.4 17.9 29 38 29 29.4-0.2 58.7-0.1 88-0.1z" p-id="669"></path></svg>