<?xml version="1.0" standalone="no"?><!DOCTYPE svg PUBLIC "-//W3C//DTD SVG 1.1//EN" "http://www.w3.org/Graphics/SVG/1.1/DTD/svg11.dtd"><svg t="1557473912347" class="icon" style="" viewBox="0 0 1024 1024" version="1.1" xmlns="http://www.w3.org/2000/svg" p-id="1367" xmlns:xlink="http://www.w3.org/1999/xlink" width="200" height="200"><defs><style type="text/css"></style></defs><path d="M472.543871 409.197636l58.208726-58.320267L302.479591 122.604362 74.177931 350.877369l58.292638 58.320267c0 0 74.66656-74.667583 128.801505-128.830157l0 317.862441c-80.418564 18.680455-140.448776 90.385567-140.448776 176.499853 0 100.353592 81.301677 181.683922 181.656293 181.683922 100.296287 0 181.741227-81.33033 181.741227-181.683922 0-86.114287-60.143799-157.820422-140.507104-176.499853L343.713714 280.367479C397.821029 334.530053 472.543871 409.197636 472.543871 409.197636L472.543871 409.197636zM949.820022 318.013891c0-100.409874-81.331353-181.626617-181.598988-181.626617-100.381222 0-181.711552 81.216743-181.711552 181.626617 0 86.11531 60.086493 157.821445 140.448776 176.5019l0 182.253904L588.503906 676.769694l0 82.46927 138.455375 0 0 197.175755 82.470293 0L809.429575 759.238964l138.341788 0 0-82.46927L809.428551 676.769694 809.428551 494.51579C889.763205 475.834312 949.820022 404.1292 949.820022 318.013891L949.820022 318.013891zM949.820022 318.013891" p-id="1368"></path></svg>